<svg xmlns="http://www.w3.org/2000/svg" viewBox="0 0 240.81 93.02"><defs><style>.cls-1{fill:#001b35;}.cls-2{fill:#0f4ece;}.cls-3{fill:#13ce99;}.cls-4{fill:#00d1db;}</style></defs><g id="Capa_2" data-name="Capa 2"><g id="Capa_1-2" data-name="Capa 1"><path class="cls-1" d="M0,25.72H44.31V41.78H17.48v9.16H39.2V66.53H17.48v9.26H45V91.85H0Z"/><path class="cls-1" d="M53.94,25.72H71V91.85h-17Z"/><path class="cls-2" d="M98.34,25.73H80.86V91.85H98.34V65.09c-5.91-7.55-9.63-19.6-9.73-19.84l9.73,8.16Z"/><path class="cls-3" d="M134.05,25.73V53l8.73-7.73c-.09.23-3.34,11.87-8.73,19.28V91.85h17.47V25.73Z"/><path class="cls-4" d="M116.19,69.73c-9.08,0-32.57-23-35.33-44H98.34s5,16.75,17.86,26.22c12.82-9.79,17.85-26.22,17.85-26.22h17.47C147.24,46.74,125.29,69.73,116.19,69.73Z"/><path class="cls-2" d="M83,16.06a9.06,9.06,0,0,1-2.84-6.61A9,9,0,0,1,83,2.79a9.28,9.28,0,0,1,13.27,0,9.09,9.09,0,0,1,2.79,6.66,9.13,9.13,0,0,1-2.79,6.61,9.19,9.19,0,0,1-13.27,0Z"/><path class="cls-3" d="M136.17,16.06a9.05,9.05,0,0,1-2.83-6.61,9,9,0,0,1,2.83-6.66,9.3,9.3,0,0,1,13.28,0,9.12,9.12,0,0,1,2.78,6.66,9.16,9.16,0,0,1-2.78,6.61,9.2,9.2,0,0,1-13.28,0Z"/><path class="cls-1" d="M161,46.74h17V91.85H161Z"/><path class="cls-1" d="M169.47,41.83a8.85,8.85,0,0,1-6.32-2.46,8.07,8.07,0,0,1-2.61-6.1,8.15,8.15,0,0,1,2.61-6.18,9.41,9.41,0,0,1,12.69,0,8.25,8.25,0,0,1,2.56,6.18,8.17,8.17,0,0,1-2.56,6.1A8.84,8.84,0,0,1,169.47,41.83Z"/><path class="cls-1" d="M213.84,93a28.2,28.2,0,0,1-14.09-3.44A24.33,24.33,0,0,1,190.27,80a28.39,28.39,0,0,1-3.4-14,28.34,28.34,0,0,1,3.4-14.07,24.37,24.37,0,0,1,9.48-9.52,30.5,30.5,0,0,1,28.18,0,24.37,24.37,0,0,1,9.48,9.52A28.45,28.45,0,0,1,240.81,66a28.5,28.5,0,0,1-3.4,14,24.33,24.33,0,0,1-9.48,9.58A28.2,28.2,0,0,1,213.84,93Zm0-13.77a9.48,9.48,0,0,0,7.81-3.74,14.85,14.85,0,0,0,3-9.53,14.84,14.84,0,0,0-3-9.58,10.11,10.11,0,0,0-15.62,0,14.78,14.78,0,0,0-3,9.58,14.79,14.79,0,0,0,3,9.53A9.48,9.48,0,0,0,213.84,79.25Z"/></g></g></svg>